
        <svg xmlns="http://www.w3.org/2000/svg" xmlns:xlink="http://www.w3.org/1999/xlink" version="1.1" width="3176.4705882352937" height="1740.1434516705199" viewBox="0 0 3176.4705882352937 1740.1434516705199">
			
			<g transform="scale(8.823529411764707) translate(10, 10)">
				<defs id="SvgjsDefs2503"><linearGradient id="SvgjsLinearGradient2510"><stop id="SvgjsStop2511" stop-color="#fe8dc6" offset="0"/><stop id="SvgjsStop2512" stop-color="#fed1c7" offset="1"/></linearGradient><linearGradient id="SvgjsLinearGradient2513"><stop id="SvgjsStop2514" stop-color="#fe8dc6" offset="0"/><stop id="SvgjsStop2515" stop-color="#fed1c7" offset="1"/></linearGradient></defs><g id="SvgjsG2504" featureKey="LwVBM5-0" transform="matrix(1.1122636846993141,0,0,1.1122636846993141,124.06412218556692,-5.593903212896937)" fill="#000"><path xmlns="http://www.w3.org/2000/svg" d="M 70.001021,60.908126 C 68.622608,58.188108 67.145285,55.569902 65.575601,53.061639 58.094083,64.673965 45.56836,75.064135 29.698243,81.525375 l 5.309266,13.040633 C 51.421671,87.88435 63.626862,75.463114 70.001021,60.908126 Z" style="" stroke="none" fill-opacity="1"/><path xmlns="http://www.w3.org/2000/svg" d="m 37.525865,76.809637 c 2.171217,-1.206804 4.270728,-2.478348 6.294108,-3.809591 C 29.857827,66.307862 16.936783,52.331384 9.3857867,33.784604 L -3.6539196,39.093492 C 4.151638,58.27083 19.793082,71.718464 37.525865,76.809637 Z" style="" stroke="none" fill-opacity="1"/><path xmlns="http://www.w3.org/2000/svg" d="M 58.448894,18.069925 53.13963,5.029296 c -18.678298,7.604542 -31.913477,22.643386 -37.293764,39.803947 1.305283,2.150557 2.682822,4.213393 4.114126,6.201433 6.947823,-13.397889 20.595079,-25.679595 38.488902,-32.964751 z" style="" stroke="none" fill-opacity="1"/><path xmlns="http://www.w3.org/2000/svg" d="M 86.252811,60.179111 C 79.002346,42.370497 64.998815,29.506309 48.838299,23.681081 c -2.333081,1.368798 -4.578063,2.810777 -6.728291,4.32107 12.665286,7.216938 24.154499,20.421334 31.10217,37.486225 l 13.040633,-5.309265 z" style="" stroke="none" fill-opacity="1"/><circle xmlns="http://www.w3.org/2000/svg" style="" cx="43.209587" cy="51.021019" r="8.1112623" fill-opacity="1" fill-rule="nonzero" stroke="none"/></g><g id="SvgjsG2505" featureKey="YhTCwJ-0" transform="matrix(2.178928360556443,0,0,2.178928360556443,-0.261470114914204,109.36683350710203)" fill="#000"><path d="M7.94 5.84 l6.02 14.16 l-1.96 0 l-1.44 -3.48 l-7.08 0 l-1.46 3.48 l-1.9 0 l6.24 -14.16 l1.58 0 z M7.08 8 l-2.94 6.96 l5.78 0 l-2.8 -6.96 l-0.04 0 z M20.16 10.4 q0.36 0 0.64 0.1 l-0.1 1.58 q-0.44 -0.12 -0.84 -0.12 q-1.36 0 -2.05 0.89 t-0.69 2.51 l0 4.64 l-1.56 0 l0 -7.28 q0 -0.28 -0.08 -2.08 l1.48 0 q0.04 1.4 0.04 1.54 l0.04 0 q0.38 -0.8 1.23 -1.29 t1.89 -0.49 z M24.96 7.98 l0 2.66 l2.76 0 l0 1.32 l-2.76 0 l0 5 q0 1.12 0.36 1.48 t1.04 0.36 q0.78 0 1.38 -0.32 l0.06 1.42 q-0.8 0.34 -1.82 0.34 q-1.44 0 -2.01 -0.71 t-0.57 -2.33 l0 -5.24 l-2.04 0 l0 -1.32 l2.04 0 l0 -2.66 l1.56 0 z M34.06 5.48 q2.58 0 3.96 1.66 l-1.38 1.2 q-0.8 -1.26 -2.58 -1.3 q-1.34 0 -2.18 0.64 t-0.84 1.74 q0 0.96 0.64 1.52 t2.4 1.1 q2.28 0.66 3.23 1.61 t0.95 2.57 q0 1.88 -1.4 3 t-3.58 1.14 q-1.46 0 -2.6 -0.52 t-1.76 -1.44 l1.44 -1.18 q0.46 0.76 1.28 1.17 t1.74 0.41 q1.26 0 2.17 -0.71 t0.91 -1.75 q0 -0.94 -0.53 -1.48 t-1.75 -0.92 l-1.62 -0.54 q-1.82 -0.62 -2.57 -1.55 t-0.75 -2.29 q0 -1.8 1.34 -2.93 t3.48 -1.15 z M45.64 10.4 q2.22 0 3.56 1.4 t1.36 3.52 q0 2.1 -1.36 3.49 t-3.32 1.43 q-1.2 0 -2.17 -0.52 t-1.43 -1.38 l-0.04 0 l0 6.22 l-1.56 0 l0 -13.92 l1.56 0 l0 1.36 l0.04 0 q1.38 -1.6 3.36 -1.6 z M42.24 15.32 q0 1.54 0.93 2.49 t2.39 0.99 q1.46 0 2.38 -0.97 t0.94 -2.51 q0 -1.52 -0.93 -2.5 t-2.41 -0.98 q-1.44 0 -2.36 0.97 t-0.94 2.51 z M54.54 4.880000000000001 l0 7.06 l0.04 0 q0.42 -0.7 1.24 -1.12 t1.78 -0.42 q1.76 0 2.65 1.02 t0.89 2.72 l0 5.86 l-1.56 0 l0 -5.68 q0 -1.08 -0.5 -1.77 t-1.64 -0.71 q-1.44 0 -2.17 0.95 t-0.73 2.57 l0 4.64 l-1.56 0 l0 -15.12 l1.56 0 z M68.36 10.4 q2.08 0 3.25 1.31 t1.19 3.71 l0 0.38 l-7.56 0 q0.12 1.3 0.98 2.14 t2.1 0.86 q1.9 0 2.96 -1.42 l1.18 0.92 q-0.74 0.96 -1.74 1.45 t-2.4 0.49 q-2.14 0 -3.44 -1.39 t-1.32 -3.53 q0 -2.12 1.33 -3.5 t3.47 -1.42 z M71.12 14.48 q-0.06 -1.22 -0.79 -1.93 t-2.05 -0.71 q-1.2 0 -2.02 0.68 t-1.02 1.96 l5.88 0 z M79.82000000000001 10.4 q0.36 0 0.64 0.1 l-0.1 1.58 q-0.44 -0.12 -0.84 -0.12 q-1.36 0 -2.05 0.89 t-0.69 2.51 l0 4.64 l-1.56 0 l0 -7.28 q0 -0.28 -0.08 -2.08 l1.48 0 q0.04 1.4 0.04 1.54 l0.04 0 q0.38 -0.8 1.23 -1.29 t1.89 -0.49 z M86.52000000000001 10.4 q2.08 0 3.25 1.31 t1.19 3.71 l0 0.38 l-7.56 0 q0.12 1.3 0.98 2.14 t2.1 0.86 q1.9 0 2.96 -1.42 l1.18 0.92 q-0.74 0.96 -1.74 1.45 t-2.4 0.49 q-2.14 0 -3.44 -1.39 t-1.32 -3.53 q0 -2.12 1.33 -3.5 t3.47 -1.42 z M89.28000000000002 14.48 q-0.06 -1.22 -0.79 -1.93 t-2.05 -0.71 q-1.2 0 -2.02 0.68 t-1.02 1.96 l5.88 0 z M105.80000000000003 5.48 q3.2 0 5.28 2.1 t2.12 5.34 q-0.02 3.3 -2.14 5.36 t-5.26 2.08 q-3.2 0 -5.28 -2.11 t-2.12 -5.33 q0 -3.2 2.08 -5.3 t5.32 -2.14 z M100.20000000000002 12.92 q0 2.54 1.6 4.19 t4 1.69 q2.4 0 3.98 -1.68 t1.62 -4.2 q0 -2.46 -1.56 -4.15 t-4.06 -1.73 q-2.44 0.02 -3.99 1.71 t-1.59 4.17 z M120.22000000000001 10.4 q1.76 0 2.66 1.02 t0.9 2.72 l0 5.86 l-1.56 0 l0 -5.68 q0 -1.08 -0.5 -1.77 t-1.64 -0.71 q-1.44 0 -2.17 0.95 t-0.73 2.63 l0 4.58 l-1.56 0 l0 -7.28 q0 -0.1 -0.08 -2.08 l1.48 0 q0.04 1.4 0.04 1.54 l0.04 0 q0.38 -0.8 1.23 -1.29 t1.89 -0.49 z M128.44000000000003 4.880000000000001 l0 15.12 l-1.56 0 l0 -15.12 l1.56 0 z M132.46000000000004 5.84 q0.46 0 0.8 0.33 t0.34 0.81 q0 0.5 -0.32 0.82 t-0.82 0.32 t-0.82 -0.32 t-0.32 -0.82 q0 -0.48 0.34 -0.81 t0.8 -0.33 z M133.24000000000004 10.64 l0 9.36 l-1.56 0 l0 -9.36 l1.56 0 z M140.94000000000005 10.4 q1.76 0 2.66 1.02 t0.9 2.72 l0 5.86 l-1.56 0 l0 -5.68 q0 -1.08 -0.5 -1.77 t-1.64 -0.71 q-1.44 0 -2.17 0.95 t-0.73 2.63 l0 4.58 l-1.56 0 l0 -7.28 q0 -0.1 -0.08 -2.08 l1.48 0 q0.04 1.4 0.04 1.54 l0.04 0 q0.38 -0.8 1.23 -1.29 t1.89 -0.49 z M151.72000000000006 10.4 q2.08 0 3.25 1.31 t1.19 3.71 l0 0.38 l-7.56 0 q0.12 1.3 0.98 2.14 t2.1 0.86 q1.9 0 2.96 -1.42 l1.18 0.92 q-0.74 0.96 -1.74 1.45 t-2.4 0.49 q-2.14 0 -3.44 -1.39 t-1.32 -3.53 q0 -2.12 1.33 -3.5 t3.47 -1.42 z M154.48000000000005 14.48 q-0.06 -1.22 -0.79 -1.93 t-2.05 -0.71 q-1.2 0 -2.02 0.68 t-1.02 1.96 l5.88 0 z"/></g><g id="SvgjsG2506" featureKey="duLK5n-0" transform="matrix(0.2829702969271022,0,0,0.2829702969271022,69.6038415573159,171.49459878135727)" fill="#000"><path d="M10.46 5.76 l1.8 0 l0 9.02 c0 3 -2.44 5.42 -5.44 5.42 c-2.98 0 -5.42 -2.42 -5.42 -5.42 l0 -9.02 l1.78 0 l0 9.02 c0 2.02 1.64 3.68 3.64 3.68 c2.02 0 3.64 -1.66 3.64 -3.68 l0 -9.02 z M39.136 20 l-7.62 -11.26 l0 11.26 l-1.8 0 l0 -14.24 l1.96 0 l7.6 11.26 l0 -11.26 l1.8 0 l0 14.24 l-1.94 0 z M57.532000000000004 5.76 l1.94 0 l4.48 11.66 l4.5 -11.66 l1.92 0 l-5.48 14.24 l-1.86 0 z M86.268 20 l0 -14.24 l9 0 l0 1.72 l-7.2 0 l0 3.34 l6.28 0 l0 1.78 l-6.28 0 l0 5.64 l7.02 0 l0 1.76 l-8.82 0 z M112.564 20 l0 -14.24 l1.8 0 l0 14.24 l-1.8 0 z M132.51999999999998 20 l0 -14.24 l1.8 0 l0 12.5 l7.8 0 l0 1.74 l-9.6 0 z M159.096 20 l0 -14.24 l1.8 0 l0 14.24 l-1.8 0 z M188.37199999999999 20 l-7.62 -11.26 l0 11.26 l-1.8 0 l0 -14.24 l1.96 0 l7.6 11.26 l0 -11.26 l1.8 0 l0 14.24 l-1.94 0 z M214.588 10.84 l5.92 0 l0 6.3 c-1.42 1.9 -3.66 3.08 -6.02 3.08 c-4.1 0 -7.44 -3.34 -7.44 -7.46 c0 -4.1 3.34 -7.44 7.44 -7.44 c2.02 0 3.9 0.8 5.28 2.2 l-1.32 1.16 c-1.04 -1.04 -2.46 -1.6 -3.96 -1.6 c-3.14 0 -5.68 2.54 -5.68 5.68 c0 3.16 2.54 5.7 5.68 5.7 c1.66 0 3.18 -0.7 4.28 -1.92 l0 -3.94 l-4.18 0 l0 -1.76 z M256.62 20 l0 -14.24 l1.8 0 l0 14.24 l-1.8 0 z M285.896 20 l-7.62 -11.26 l0 11.26 l-1.8 0 l0 -14.24 l1.96 0 l7.6 11.26 l0 -11.26 l1.8 0 l0 14.24 l-1.94 0 z M305.192 20 l0 -14.24 l9 0 l0 1.74 l-7.2 0 l0 3.34 l3.96 0 l0 1.76 l-3.96 0 l0 7.4 l-1.8 0 z M331.148 20 l0 -14.24 l1.8 0 l0 14.24 l-1.8 0 z M360.42400000000004 20 l-7.62 -11.26 l0 11.26 l-1.8 0 l0 -14.24 l1.96 0 l7.6 11.26 l0 -11.26 l1.8 0 l0 14.24 l-1.94 0 z M380.62 20 l0 -14.24 l1.8 0 l0 14.24 l-1.8 0 z M403.576 20 l0 -12.48 l-3.76 0 l0 -1.76 l9.32 0 l0 1.76 l-3.76 0 l0 12.48 l-1.8 0 z M425.192 20 l0 -14.24 l9 0 l0 1.72 l-7.2 0 l0 3.34 l6.28 0 l0 1.78 l-6.28 0 l0 5.64 l7.02 0 l0 1.76 l-8.82 0 z M476.084 18.46 c1.78 0 3.44 -0.82 4.54 -2.26 l1.4 1.04 c-1.42 1.9 -3.6 2.98 -5.94 2.98 c-4.12 0 -7.46 -3.34 -7.46 -7.46 c0 -4.1 3.34 -7.44 7.46 -7.44 c2.36 0 4.54 1.1 5.96 3 l-1.42 1.04 c-1.08 -1.46 -2.74 -2.28 -4.54 -2.28 c-3.16 0 -5.7 2.54 -5.7 5.68 c0 3.16 2.54 5.7 5.7 5.7 z M504.34000000000003 12.42 l5.5 7.58 l-2.06 0 l-5.44 -7.48 l-2.04 0 l0 7.48 l-1.72 0 l0 -14.24 l4.94 0 c0.9 0 1.74 0.36 2.38 1 s1 1.48 1 2.38 c0 1.58 -1.1 2.9 -2.56 3.28 z M500.3 7.48 l0 3.32 l3.22 0 c0.92 0 1.66 -0.74 1.66 -1.66 s-0.74 -1.66 -1.66 -1.66 l-3.22 0 z M525.096 20 l0 -14.24 l9 0 l0 1.72 l-7.2 0 l0 3.34 l6.28 0 l0 1.78 l-6.28 0 l0 5.64 l7.02 0 l0 1.76 l-8.82 0 z M560.292 20 l-1.58 -4.14 l-5.82 0 l-1.58 4.14 l-1.92 0 l5.48 -14.24 l1.86 0 l5.5 14.24 l-1.94 0 z M558.0120000000001 14.1 l-2.2 -5.76 l-2.22 5.76 l4.42 0 z M581.188 20 l0 -12.48 l-3.76 0 l0 -1.76 l9.32 0 l0 1.76 l-3.76 0 l0 12.48 l-1.8 0 z M604.1439999999999 20 l0 -14.24 l1.8 0 l0 14.24 l-1.8 0 z M622.7999999999998 5.76 l1.94 0 l4.48 11.66 l4.5 -11.66 l1.92 0 l-5.48 14.24 l-1.86 0 z M652.2959999999998 20 l0 -14.24 l1.8 0 l0 14.24 l-1.8 0 z M675.2519999999997 20 l0 -12.48 l-3.76 0 l0 -1.76 l9.32 0 l0 1.76 l-3.76 0 l0 12.48 l-1.8 0 z M701.3479999999997 20 l0 -7.2 l-5.02 -7.04 l2.2 0 l3.74 5.22 l3.74 -5.22 l2.18 0 l-5.02 7.04 l0 7.2 l-1.82 0 z"/></g>
			</g>
		</svg>
	