
        <svg xmlns="http://www.w3.org/2000/svg" xmlns:xlink="http://www.w3.org/1999/xlink" version="1.1" width="3176.991150442478" height="814.1592920353982" viewBox="0 0 3176.991150442478 814.1592920353982">
			
			<g transform="scale(8.849557522123893) translate(10, 10)">
				<defs id="SvgjsDefs2751"><linearGradient id="SvgjsLinearGradient2760"><stop id="SvgjsStop2761" stop-color="#00ff8f" offset="0"/><stop id="SvgjsStop2762" stop-color="#00a1ff" offset="1"/></linearGradient></defs><g id="SvgjsG2752" featureKey="symbolFeature-0" transform="matrix(0.8460958597070057,0,0,0.8460958597070057,-0.4229130262780398,-7.860671878642257)" fill="#fff"><g xmlns="http://www.w3.org/2000/svg"><path d="M26.21,92.168l13.429-4.4l7.997-13.37C40.466,80.339,32.642,86.824,26.21,92.168L26.21,92.168z M36.454,62.986l6.032-5.279   L32.226,13.173l-5.269,37.935L36.454,62.986L36.454,62.986z M43.234,57.051l2.234-1.957c0.071-0.062,0.456-0.168,0.55-0.15   l11.338,2.044l3.531-7.285L32.949,12.409L43.234,57.051L43.234,57.051z M56.761,58.217l-7.124-1.285l6.456,2.664L56.761,58.217   L56.761,58.217z M45.117,57.148l-1.623,1.422c-0.051,0.107-0.144,0.185-0.255,0.222l-5.965,5.223l2.006,2.51L45.117,57.148   L45.117,57.148z M14.843,45.839l5.087-0.731L12.897,43.5L4.502,54.387l9.84-8.376C14.43,45.944,14.495,45.889,14.843,45.839   L14.843,45.839z M21.051,45.828c-0.024,0.006-5.854,0.845-5.854,0.845s8.104,43.903,8.366,45.094l14.915-24.138L21.051,45.828   L21.051,45.828z M47.21,57.351l2.444,13.668l10.199-8.446L47.21,57.351L47.21,57.351z M48.877,71.661L46.368,57.63L25.622,90.943   C32.641,85.114,41.263,77.969,48.877,71.661L48.877,71.661z M4.679,55.388l8.922-3.774c0.43-0.182,0.826,0.035,0.905,0.491   l6.795,37.315c0.469-0.124,0.538-0.137,0.824-0.222L14.39,47.122L4.679,55.388L4.679,55.388z M57.311,60.098l3.69,1.524   l6.831-5.655c0.244-0.202,0.677-0.177,0.896,0.053l4.386,4.596l4.675-42.769L57.311,60.098L57.311,60.098z M19.385,87.76   l-0.801-4.597l-1.457,1.632L19.385,87.76L19.385,87.76z M96.383,86.909L68.198,57.371l-17.995,14.9L96.383,86.909L96.383,86.909z    M40.709,87.688l54.357-0.278L49.512,72.972L40.709,87.688L40.709,87.688z M98.28,88.709l-58.188,0.296l-16.331,5.35   c-0.634,0.158-0.953-0.299-1.044-0.618c-0.252-0.901-0.602-2.094-0.838-3.011c-0.586,0.171-1.447,0.495-1.993-0.136l-4.135-5.431   c-0.246-0.364-0.404-0.567,0.154-1.265c0.908-0.952,1.828-1.872,2.386-2.404l-4.939-28.346L1.479,58.169   c-0.765,0.325-1.285-0.347-0.777-1.007l11.41-14.797c0.2-0.271,0.395-0.288,0.667-0.24l8.337,1.906   c0.231,0.078,0.338,0.194,0.366,0.23l4.343,5.431l5.521-39.741c0.101-0.727,0.736-0.892,1.178-0.303l29.009,38.723l16.729-34.52   c0.385-0.789,1.343-0.512,1.247,0.359l-5.21,47.647l24.555,25.734C99.342,88.104,98.885,88.695,98.28,88.709L98.28,88.709z"/></g></g><g id="SvgjsG2753" featureKey="textGroupContainer" transform="matrix(1,0,0,1,338,4)" fill="#fff"><rect xmlns="http://www.w3.org/2000/svg" y="0" height="1" width="1" opacity="0"/><rect xmlns="http://www.w3.org/2000/svg" y="0" x="-235" width="5" height="64"/></g><g id="SvgjsG2754" featureKey="nameFeature-0" transform="matrix(1.061233115117382,0,0,1.061233115117382,120.57550715878135,13.887299038168427)" fill="#fff"><path d="M12.38 20 l-1.06 -2.5 l-6.76 0 l-1.06 2.5 l-3.1 0 l6.22 -14 l2.64 0 l6.24 14 l-3.12 0 z M5.58 15.120000000000001 l4.72 0 l-2.36 -5.54 z M28.12 20 l-3.1 0 l-2.98 -4.66 l-0.04 0 l-1.98 0 l0 4.66 l-2.92 0 l0 -14 l4.9 0 c3.14 0 5.18 1.9 5.18 4.76 c0 1.9 -0.92 3.32 -2.48 4.04 z M20.02 8.68 l0 4.14 l1.8 0 c1.44 0 2.44 -0.56 2.44 -2.06 c0 -1.48 -1 -2.08 -2.44 -2.08 l-1.8 0 z M39.42 6 l0 2.68 l-3.48 0 l0 11.32 l-2.92 0 l0 -11.32 l-3.5 0 l0 -2.68 l9.9 0 z M45.4 5.76 c2.46 0 4.02 1.54 4.76 2.9 l-2.16 1.28 c-0.76 -1.06 -1.5 -1.6 -2.6 -1.6 c-0.98 0 -1.7 0.58 -1.7 1.38 s0.46 1.22 1.56 1.62 l0.96 0.34 c3.1 1.1 4.32 2.48 4.32 4.4 c0 2.82 -2.68 4.22 -5.06 4.22 c-2.52 0 -4.48 -1.5 -5.16 -3.46 l2.24 -1.18 c0.5 1.02 1.34 2 2.92 2 c1.14 0 2.02 -0.5 2.02 -1.54 c0 -1 -0.6 -1.44 -2.12 -2.02 l-0.86 -0.3 c-2.06 -0.74 -3.72 -1.76 -3.72 -4.2 c0 -2.24 2.1 -3.84 4.6 -3.84 z M57.339999999999996 6 c3.14 0 5.18 1.9 5.18 4.76 c0 2.82 -2.04 4.58 -5.18 4.58 l-1.98 0 l0 4.66 l-2.92 0 l0 -14 l4.9 0 z M57.16 12.82 c1.44 0 2.44 -0.56 2.44 -2.06 c0 -1.48 -1 -2.08 -2.44 -2.08 l-1.8 0 l0 4.14 l1.8 0 z M72.98 6 l2.92 0 l0 14 l-2.92 0 l0 -5.66 l-5.64 0 l0 5.66 l-2.92 0 l0 -14 l2.92 0 l0 5.66 l5.64 0 l0 -5.66 z M81.22 17.32 l5.92 0 l0 2.68 l-6.32 0 l-2.52 0 l0 -14 l2.92 0 l5.74 0 l0 2.68 l-5.74 0 l0 2.96 l4.34 0 l0 2.64 l-4.34 0 l0 3.04 z M100.25999999999999 20 l-3.1 0 l-2.98 -4.66 l-0.04 0 l-1.98 0 l0 4.66 l-2.92 0 l0 -14 l4.9 0 c3.14 0 5.18 1.9 5.18 4.76 c0 1.9 -0.92 3.32 -2.48 4.04 z M92.16 8.68 l0 4.14 l1.8 0 c1.44 0 2.44 -0.56 2.44 -2.06 c0 -1.48 -1 -2.08 -2.44 -2.08 l-1.8 0 z M104.97999999999999 17.32 l5.92 0 l0 2.68 l-6.32 0 l-2.52 0 l0 -14 l2.92 0 l5.74 0 l0 2.68 l-5.74 0 l0 2.96 l4.34 0 l0 2.64 l-4.34 0 l0 3.04 z M125.95999999999998 5.800000000000001 c3.9 0 7.26 2.94 7.26 7.2 s-3.36 7.2 -7.26 7.2 s-7.26 -2.94 -7.26 -7.2 s3.36 -7.2 7.26 -7.2 z M125.95999999999998 17.46 c2.36 0 4.22 -1.86 4.22 -4.46 s-1.86 -4.46 -4.22 -4.46 s-4.22 1.86 -4.22 4.46 s1.86 4.46 4.22 4.46 z M144.47999999999996 6 l2.92 0 l0 14 l-2.22 0 l-6.94 -8.68 l0 8.68 l-2.92 0 l0 -14 l2.26 0 l6.9 8.7 l0 -8.7 z M152.71999999999997 17.32 l5.5 0 l0 2.68 l-8.42 0 l0 -14 l2.92 0 l0 11.32 z M163.13999999999996 6 l0 14 l-2.92 0 l0 -14 l2.92 0 z M174.69999999999993 6 l2.92 0 l0 14 l-2.22 0 l-6.94 -8.68 l0 8.68 l-2.92 0 l0 -14 l2.26 0 l6.9 8.7 l0 -8.7 z M182.93999999999994 17.32 l5.92 0 l0 2.68 l-6.32 0 l-2.52 0 l0 -14 l2.92 0 l5.74 0 l0 2.68 l-5.74 0 l0 2.96 l4.34 0 l0 2.64 l-4.34 0 l0 3.04 z"/></g><g id="SvgjsG2755" featureKey="sloganFeature-0" transform="matrix(0.43423978303913185,0,0,0.43423978303913185,120.13152053745257,42.985128499984015)" fill="#fff"><path d="M8.7 20.34 q-2.1 0 -3.61 -0.73 t-2.3 -2.11 t-0.79 -3.3 l0 -9.12 l2.16 0 l0 9.12 q0 1.92 1.18 2.94 t3.36 1.02 t3.36 -1.02 t1.18 -2.94 l0 -9.12 l2.16 0 l0 9.12 q0 1.92 -0.79 3.3 t-2.3 2.11 t-3.61 0.73 z M20.040000000000003 7.18 l-1.74 -2.1 l2.82 0 l9.58 11.4 l0 -11.4 l2.2 0 l0 14.92 l-2.16 0 l-8.56 -10.26 l0 10.26 l-2.14 0 l0 -12.82 z M50.7 5.08 l-6.26 14.92 l-2.58 0 l-6.16 -14.92 l2.36 0 l5.1 12.48 l5.14 -12.48 l2.4 0 z M55.68 14.02 l0 3.8 l9.2 0 l0 2.18 l-11.38 0 l0 -14.92 l10.5 0 l0 2.2 l-8.32 0 l0 4.52 q0.62 -0.36 1.38 -0.48 q0.56 -0.1 1.44 -0.1 l3.26 0 l0 2.22 l-3.26 0 q-0.82 0 -1.44 0.1 q-0.76 0.14 -1.38 0.48 z M70.52 20 l-2.14 0 l0 -14.92 l2.14 0 l0 14.92 z M85.38 20 l-10.46 0 l0 -14.92 l2.18 0 l0 12.74 l8.28 0 l0 2.18 z M90.12 20 l-2.14 0 l0 -14.92 l2.14 0 l0 14.92 z M94.96000000000001 7.18 l-1.74 -2.1 l2.82 0 l9.58 11.4 l0 -11.4 l2.2 0 l0 14.92 l-2.16 0 l-8.56 -10.26 l0 10.26 l-2.14 0 l0 -12.82 z M125.00000000000001 7 l-1.4 1.64 q-0.82 -0.84 -1.96 -1.32 t-2.4 -0.48 q-1.64 0 -2.99 0.74 t-2.11 2.02 q-0.78 1.34 -0.78 2.98 q0 1.56 0.84 2.88 q0.8 1.24 2.15 1.97 t2.91 0.73 q1.1 0 2.11 -0.38 t1.81 -1.06 l0 -2.72 l-1.92 0 l-0.94 -2.16 l5.02 0 l0 5.8 q-1.14 1.28 -2.73 1.99 t-3.37 0.71 q-2.22 0 -4.08 -1.08 q-1.82 -1.04 -2.86 -2.86 q-1.08 -1.86 -1.08 -4.08 q0 -2.14 1.14 -3.94 q1.08 -1.72 2.93 -2.73 t3.97 -1.01 q1.66 0 3.16 0.64 q1.46 0.6 2.58 1.72 z M136.6 20 l-2.14 0 l0 -14.92 l2.14 0 l0 14.92 z M141.43999999999997 7.18 l-1.74 -2.1 l2.82 0 l9.58 11.4 l0 -11.4 l2.2 0 l0 14.92 l-2.16 0 l-8.56 -10.26 l0 10.26 l-2.14 0 l0 -12.82 z M160.87999999999997 14.02 l0 5.98 l-2.18 0 l0 -14.92 l10.5 0 l0 2.2 l-8.32 0 l0 4.52 q0.62 -0.36 1.38 -0.48 q0.56 -0.1 1.44 -0.1 l3.26 0 l0 2.22 l-3.26 0 q-0.82 0 -1.44 0.1 q-0.76 0.14 -1.38 0.48 z M174.73999999999998 20 l-2.14 0 l0 -14.92 l2.14 0 l0 14.92 z M179.57999999999996 7.18 l-1.74 -2.1 l2.82 0 l9.58 11.4 l0 -11.4 l2.2 0 l0 14.92 l-2.16 0 l-8.56 -10.26 l0 10.26 l-2.14 0 l0 -12.82 z M198.97999999999996 20 l-2.14 0 l0 -14.92 l2.14 0 l0 14.92 z M214.47999999999996 7.279999999999999 l-5.26 0 l0 12.72 l-2.12 0 l0 -12.72 l-5.32 0 l0 -2.2 l12.7 0 l0 2.2 z M219.45999999999995 14.02 l0 3.8 l9.2 0 l0 2.18 l-11.38 0 l0 -14.92 l10.5 0 l0 2.2 l-8.32 0 l0 4.52 q0.62 -0.36 1.38 -0.48 q0.56 -0.1 1.44 -0.1 l3.26 0 l0 2.22 l-3.26 0 q-0.82 0 -1.44 0.1 q-0.76 0.14 -1.38 0.48 z M250.35999999999993 7 l-1.4 1.64 q-0.82 -0.84 -1.96 -1.32 t-2.4 -0.48 q-1.64 0 -2.99 0.74 t-2.11 2.02 q-0.78 1.34 -0.78 2.98 q0 1.56 0.84 2.88 q0.8 1.24 2.15 1.97 t2.91 0.73 q1.44 0 2.68 -0.62 t2.06 -1.72 l1.34 1.82 q-1.14 1.28 -2.73 1.99 t-3.37 0.71 q-2.22 0 -4.08 -1.08 q-1.82 -1.04 -2.86 -2.86 q-1.08 -1.86 -1.08 -4.08 q0 -2.14 1.14 -3.94 q1.08 -1.72 2.93 -2.73 t3.97 -1.01 q1.66 0 3.16 0.64 q1.46 0.6 2.58 1.72 z M256.0799999999999 7.26 l0 4.96 q0.62 -0.36 1.38 -0.48 q0.56 -0.1 1.44 -0.1 l2.84 0 q1.18 0 1.84 -0.54 q0.7 -0.58 0.7 -1.74 q0 -1.1 -0.74 -1.64 q-0.64 -0.46 -1.8 -0.46 l-5.66 0 z M262.4599999999999 17.64 l-1.82 -3.82 l-1.74 0 q-0.82 0 -1.44 0.1 q-0.76 0.14 -1.38 0.48 l0 5.6 l-2.18 0 l0 -14.92 l7.84 0 q1.38 0 2.44 0.52 t1.64 1.48 q0.62 1.02 0.62 2.4 q0 1.68 -0.9 2.76 t-2.54 1.5 l1.16 2.38 q0.5 0.74 0.78 1.04 q0.34 0.38 0.65 0.51 t0.81 0.13 l0.22 0 l0.48 -0.02 l0 2.22 q-1.16 0 -1.72 -0.08 q-0.94 -0.16 -1.6 -0.62 q-0.78 -0.56 -1.32 -1.66 z M272.87999999999994 14.02 l0 3.8 l9.2 0 l0 2.18 l-11.38 0 l0 -14.92 l10.5 0 l0 2.2 l-8.32 0 l0 4.52 q0.62 -0.36 1.38 -0.48 q0.56 -0.1 1.44 -0.1 l3.26 0 l0 2.22 l-3.26 0 q-0.82 0 -1.44 0.1 q-0.76 0.14 -1.38 0.48 z M290.23999999999995 6.66 l-0.82 -1.84 l2.4 0 l7.18 15.18 l-2.44 0 l-0.98 -2.18 l-4.54 0 q-1.28 0 -2.3 0.24 q-0.9 0.22 -1.5 0.58 q-0.54 0.32 -0.72 0.66 l-0.38 0.7 l-2.36 0 z M291.8399999999999 15.620000000000001 l2.76 0 l-3.26 -6.3 l-3.3 7.14 q0.44 -0.38 1.34 -0.6 q1.02 -0.24 2.46 -0.24 z M312.8999999999999 7.279999999999999 l-5.26 0 l0 12.72 l-2.12 0 l0 -12.72 l-5.32 0 l0 -2.2 l12.7 0 l0 2.2 z M317.83999999999986 20 l-2.14 0 l0 -14.92 l2.14 0 l0 14.92 z M335.63999999999993 5.08 l-6.26 14.92 l-2.58 0 l-6.16 -14.92 l2.36 0 l5.1 12.48 l5.14 -12.48 l2.4 0 z M340.57999999999987 20 l-2.14 0 l0 -14.92 l2.14 0 l0 14.92 z M356.0799999999999 7.279999999999999 l-5.26 0 l0 12.72 l-2.12 0 l0 -12.72 l-5.32 0 l0 -2.2 l12.7 0 l0 2.2 z M363.8199999999999 11.64 q1.34 -1.4 2.42 -3.12 t1.72 -3.44 l2.5 0 q-1.02 2.38 -2.48 4.56 q-1.32 1.98 -3.08 3.9 l0 6.46 l-2.16 0 l0 -6.46 q-1.76 -1.92 -3.08 -3.9 q-1.46 -2.18 -2.48 -4.56 l2.5 0 q0.64 1.72 1.72 3.44 t2.42 3.12 z"/></g>
			</g>
		</svg>
	